<svg width="443" height="443" viewBox="0 0 443 443" fill="none" xmlns="http://www.w3.org/2000/svg">
<path d="M96.9207 0.12726C98.0303 0.123435 99.1398 0.119609 100.283 0.115668C103.973 0.105411 107.662 0.109316 111.352 0.113298C114.009 0.108948 116.666 0.103827 119.323 0.0978106C125.775 0.0851044 132.227 0.0832649 138.679 0.0856109C143.928 0.087399 149.177 0.0856338 154.426 0.0813864C155.175 0.0807912 155.924 0.0801961 156.696 0.0795828C158.218 0.078371 159.74 0.0771569 161.262 0.0759405C175.516 0.0650803 189.77 0.06722 204.024 0.0733253C217.036 0.0784913 230.049 0.0672447 243.062 0.0482271C256.452 0.0288096 269.842 0.0205996 283.232 0.0243503C290.738 0.0262567 298.244 0.0238304 305.75 0.0096358C312.141 -0.00232903 318.532 -0.00362625 324.923 0.00842596C328.178 0.0142796 331.432 0.0138583 334.687 0.00342356C363.476 -0.0821847 390.535 4.77372 411.767 25.7786C412.627 26.6397 413.487 27.5008 414.373 28.388C415.098 29.0428 415.824 29.6976 416.572 30.3723C431.964 44.5248 441.176 67.5892 442.56 88.1685C442.631 91.0927 442.644 94.011 442.633 96.936C442.637 98.0455 442.641 99.1551 442.645 100.298C442.655 103.988 442.651 107.678 442.647 111.367C442.652 114.025 442.657 116.682 442.663 119.339C442.676 125.79 442.677 132.242 442.675 138.694C442.673 143.943 442.675 149.192 442.679 154.441C442.68 155.19 442.68 155.939 442.681 156.711C442.682 158.233 442.683 159.755 442.685 161.277C442.696 175.531 442.693 189.785 442.687 204.039C442.682 217.052 442.693 230.064 442.712 243.077C442.732 256.467 442.74 269.857 442.736 283.247C442.734 290.753 442.737 298.259 442.751 305.765C442.763 312.156 442.764 318.547 442.752 324.938C442.746 328.193 442.747 331.447 442.757 334.702C442.852 366.584 436.057 392.427 413.31 415.888C395.378 433.789 371.422 442.55 346.306 442.528C345.2 442.531 344.093 442.534 342.954 442.537C339.252 442.546 335.549 442.548 331.847 442.549C329.191 442.554 326.534 442.559 323.878 442.564C316.663 442.578 309.447 442.584 302.232 442.588C297.721 442.591 293.21 442.595 288.699 442.6C276.193 442.612 263.688 442.622 251.182 442.626C249.982 442.626 249.982 442.626 248.759 442.626C247.957 442.626 247.155 442.627 246.33 442.627C244.706 442.627 243.082 442.628 241.458 442.628C240.652 442.628 239.847 442.629 239.017 442.629C225.978 442.633 212.939 442.65 199.9 442.674C186.492 442.697 173.084 442.71 159.676 442.711C152.157 442.712 144.637 442.717 137.118 442.736C130.712 442.751 124.306 442.756 117.9 442.748C114.638 442.744 111.375 442.747 108.113 442.759C75.7066 442.876 50.1597 435.816 26.3102 412.763C8.67223 395.091 0.211458 370.982 0.23225 346.321C0.229279 345.215 0.226309 344.109 0.223247 342.969C0.214584 339.267 0.213053 335.565 0.211559 331.863C0.206929 329.206 0.201925 326.55 0.196514 323.893C0.18296 316.678 0.176911 309.463 0.172504 302.247C0.169736 297.736 0.165497 293.225 0.160999 288.714C0.148809 276.209 0.138506 263.703 0.13512 251.197C0.134901 250.397 0.134683 249.598 0.134457 248.774C0.134238 247.972 0.134025 247.171 0.1338 246.345C0.133357 244.721 0.132907 243.097 0.132458 241.473C0.132125 240.265 0.132125 240.265 0.131786 239.032C0.127842 225.993 0.110402 212.954 0.0871009 199.915C0.0633348 186.507 0.0509186 173.099 0.049755 159.692C0.0488411 152.172 0.0431619 144.653 0.0249366 137.133C0.0094643 130.727 0.00445821 124.322 0.0126761 117.916C0.0165579 114.653 0.0141142 111.391 0.00162113 108.128C-0.102184 79.3156 4.74027 52.2436 25.7633 30.9934C26.6244 30.1336 27.4855 29.2738 28.3727 28.388C29.0275 27.6622 29.6824 26.9365 30.3571 26.1887C46.8618 8.23812 73.1563 0.0388665 96.9207 0.12726ZM224.373 101.388C223.383 102.873 223.383 102.873 222.373 104.388C222.286 103.424 222.2 102.46 222.111 101.466C221.97 100.203 221.83 98.9395 221.685 97.638C221.558 96.385 221.43 95.132 221.298 93.8411C220.142 89.5259 219.184 88.6648 215.373 86.388C212.179 85.8092 209.036 85.8412 205.797 85.8704C204.838 85.8634 203.88 85.8564 202.893 85.8491C199.729 85.8316 196.567 85.8432 193.404 85.8567C191.203 85.854 189.003 85.8501 186.803 85.8451C182.192 85.8392 177.583 85.8478 172.973 85.8665C167.064 85.8893 161.157 85.8761 155.248 85.8522C150.705 85.8377 146.162 85.8423 141.618 85.8527C139.44 85.8554 137.261 85.8521 135.083 85.8428C132.038 85.8326 128.994 85.8481 125.949 85.8704C125.049 85.8623 124.149 85.8542 123.222 85.8458C119.118 85.9014 116.912 86.0599 113.337 88.2328C110.523 91.3201 110.248 93.8 110.241 97.8165C110.237 98.7279 110.234 99.6393 110.23 100.578C110.23 101.581 110.231 102.584 110.232 103.617C110.229 104.681 110.226 105.745 110.223 106.842C110.215 110.425 110.213 114.009 110.212 117.592C110.207 120.154 110.202 122.717 110.197 125.279C110.183 132.252 110.177 139.225 110.173 146.198C110.17 150.552 110.166 154.905 110.161 159.258C110.149 171.31 110.139 183.362 110.135 195.414C110.135 196.185 110.135 196.957 110.134 197.752C110.134 198.525 110.134 199.298 110.134 200.095C110.133 201.662 110.133 203.229 110.132 204.796C110.132 205.573 110.132 206.35 110.132 207.151C110.128 219.747 110.11 232.343 110.087 244.939C110.063 257.868 110.051 270.798 110.05 283.728C110.049 290.988 110.043 298.249 110.025 305.509C110.008 312.337 110.006 319.165 110.015 325.993C110.016 328.502 110.011 331.01 110.002 333.518C109.989 336.938 109.995 340.358 110.005 343.778C109.993 345.272 109.993 345.272 109.981 346.796C110.019 352.059 110.327 355.884 113.373 360.388C116.488 362.465 117.186 362.641 120.724 362.662C122.057 362.677 122.057 362.677 123.417 362.692C124.39 362.693 125.362 362.694 126.364 362.694C127.391 362.703 128.417 362.711 129.474 362.72C132.875 362.744 136.276 362.752 139.677 362.759C142.038 362.768 144.398 362.777 146.758 362.786C151.71 362.803 156.661 362.811 161.612 362.813C167.96 362.819 174.308 362.857 180.655 362.902C185.532 362.932 190.408 362.939 195.284 362.94C197.624 362.944 199.965 362.957 202.305 362.978C205.578 363.005 208.849 363 212.122 362.987C213.091 363.002 214.059 363.017 215.057 363.032C219.388 362.985 221.752 362.781 225.473 360.425C228.084 356.251 228.073 353.026 228.016 348.189C228.025 347.27 228.034 346.35 228.043 345.402C228.067 342.358 228.056 339.315 228.045 336.271C228.055 334.136 228.068 332.001 228.083 329.866C228.117 324.229 228.123 318.593 228.121 312.956C228.124 306.191 228.157 299.426 228.189 292.661C228.214 287.376 228.234 282.092 228.235 276.807C228.281 241.473 228.281 241.473 230.623 224.575C230.813 223.17 230.813 223.17 231.008 221.737C232.776 209.611 235.184 196.57 242.373 186.388C242.75 185.819 243.128 185.251 243.517 184.665C247.393 179.39 253.072 176.675 259.373 175.388C268.938 174.295 277.633 177.412 286.572 180.49C290.137 181.633 292.653 181.929 296.373 181.388C300.176 177.442 302.424 173.654 304.615 168.595C304.9 167.943 305.186 167.291 305.48 166.62C306.412 164.484 307.33 162.343 308.248 160.2C308.897 158.702 309.548 157.204 310.199 155.706C311.564 152.561 312.922 149.414 314.275 146.264C316.036 142.166 317.81 138.074 319.59 133.984C320.98 130.787 322.364 127.589 323.747 124.389C324.411 122.853 325.076 121.319 325.743 119.784C326.674 117.637 327.598 115.488 328.521 113.337C328.934 112.389 328.934 112.389 329.355 111.422C332.147 105.273 332.147 105.273 331.435 98.888C321.689 87.0742 298.87 82.0315 284.373 80.388C260.854 78.8647 241.109 83.9504 224.373 101.388Z" fill="#749F43"/>
</svg>
